<?xml version="1.0" encoding="UTF-8"?>
<svg width="16px" height="16px" viewBox="0 0 16 16" version="1.1" xmlns="http://www.w3.org/2000/svg" xmlns:xlink="http://www.w3.org/1999/xlink">
    <title>1.Icon/系统自带/文件彩/文件夹</title>
    <g id="1.Icon/系统自带/文件彩/文件夹" stroke="none" stroke-width="1" fill="none" fill-rule="evenodd">
        <g id="文件类型-标准图-文件夹" transform="translate(0.000000, 1.000000)" fill-rule="nonzero">
            <path d="M0,0.8 C0,0.3581722 0.3581722,0 0.8,0 L6.2725,0 C6.59252516,0 6.88175009,0.190744393 7.0078,0.4849 L7.4,1.4 L15.2,1.4 C15.6418278,1.4 16,1.7581722 16,2.2 L16,10.6 C16,11.0418278 15.6418278,11.4 15.2,11.4 L0.8,11.4 C0.3581722,11.4 0,11.0418278 0,10.6 L0,0.8 Z" id="路径" fill="#FFA000"></path>
            <path d="M2.2,2.7 L13.8,2.7 C14.3333333,2.7 14.6,2.96666667 14.6,3.5 L14.6,10.7 C14.6,11.2333333 14.3333333,11.5 13.8,11.5 L2.2,11.5 C1.66666667,11.5 1.4,11.2333333 1.4,10.7 L1.4,3.5 C1.4,2.96666667 1.66666667,2.7 2.2,2.7 Z" id="路径" fill="#FFFFFF"></path>
            <path d="M0.8,4 L15.2,4 C15.7333333,4 16,4.26666667 16,4.8 L16,12.8 C16,13.3333333 15.7333333,13.6 15.2,13.6 L0.8,13.6 C0.266666667,13.6 0,13.3333333 0,12.8 L0,4.8 C0,4.26666667 0.266666667,4 0.8,4 Z" id="路径" fill="#FFCA28"></path>
        </g>
    </g>
</svg>