<?xml version="1.0" encoding="UTF-8"?>
<svg width="16px" height="16px" viewBox="0 0 16 16" version="1.1" xmlns="http://www.w3.org/2000/svg" xmlns:xlink="http://www.w3.org/1999/xlink">
    <title>1.Icon/系统自带/文件彩/图片</title>
    <g id="1.Icon/系统自带/文件彩/图片" stroke="none" stroke-width="1" fill="none" fill-rule="evenodd">
        <g id="文件类型-标准图-图片文件" transform="translate(1.500000, 0.000000)" fill-rule="nonzero">
            <path d="M1,0 L9,0 L13,4 L13,15 C13,15.5523 12.5523,16 12,16 L1,16 C0.4477,16 0,15.5523 0,15 L0,1 C0,0.4477 0.4477,0 1,0 Z" id="路径" fill="#F5BA18"></path>
            <path d="M2.5395,11.5948 L3.9974,9.452 C4.03518738,9.39639739 4.09571309,9.36044396 4.1626172,9.35385785 C4.22952131,9.34727173 4.29589586,9.37073295 4.3438,9.4179 L5.3073,10.3619 L7.4213,7.0484 C7.46386689,6.98151763 7.53829243,6.94174496 7.61755167,6.943524 C7.69681091,6.94530303 7.76937693,6.98837505 7.8089,7.0571 L10.4355,11.6091 C10.4760949,11.6792471 10.4761349,11.7657342 10.4356049,11.8359188 C10.3950749,11.9061035 10.3201466,11.9492981 10.2391,11.9492005 L2.727,11.9492005 C2.64288941,11.9493775 2.56560057,11.9029516 2.52625002,11.8286135 C2.48689948,11.7542753 2.49196223,11.664257 2.5394,11.5948 L2.5395,11.5948 Z" id="路径" fill="#FFF7F7"></path>
            <path d="M2.9761,6.7429 C2.9761,7.37410624 3.48779376,7.8858 4.119,7.8858 C4.75020624,7.8858 5.2619,7.37410624 5.2619,6.7429 C5.2619,6.11169376 4.75020624,5.6 4.119,5.6 C3.48779376,5.6 2.9761,6.11169376 2.9761,6.7429 Z" id="路径" fill="#FFFFFF"></path>
            <path d="M9,0 L13,4 L10,4 C9.4477,4 9,3.5523 9,3 L9,0 Z" id="路径" fill="#FFE7B5"></path>
        </g>
    </g>
</svg>