<?xml version="1.0" encoding="UTF-8"?>
<svg width="16px" height="16px" viewBox="0 0 16 16" version="1.1" xmlns="http://www.w3.org/2000/svg" xmlns:xlink="http://www.w3.org/1999/xlink">
    <title>1.Icon/系统自带/文件彩/PDF</title>
    <g id="1.Icon/系统自带/文件彩/PDF" stroke="none" stroke-width="1" fill="none" fill-rule="evenodd">
        <g id="文件类型-标准图-PDF文档" transform="translate(1.500000, 0.000000)" fill-rule="nonzero">
            <path d="M1,0 L9,0 L13,4 L13,15 C13,15.5523 12.5523,16 12,16 L1,16 C0.4477,16 0,15.5523 0,15 L0,1 C0,0.4477 0.4477,0 1,0 Z" id="路径" fill="#F36D78"></path>
            <path d="M9.0985,10.7755 C8.5586,10.7354 8.0388,10.5349 7.6189,10.174 C6.7991,10.3544 6.0192,10.615 5.2394,10.9359 C4.6196,12.0386 4.0397,12.6 3.5398,12.6 C3.4398,12.6 3.3199,12.58 3.2399,12.5198 C3.0199,12.4196 2.9,12.199 2.9,11.9785 C2.9,11.798 2.94,11.2968 4.8395,10.4747 C5.2795,9.6727 5.6193,8.8507 5.8993,7.9886 C5.6593,7.5074 5.1395,6.3244 5.4993,5.723 C5.6193,5.5024 5.8593,5.3821 6.1193,5.4022 C6.3192,5.4022 6.5191,5.5024 6.6391,5.6628 C6.8991,6.0237 6.8791,6.7856 6.5391,7.9084 C6.85910233,8.50903488 7.27822725,9.05132444 7.7788,9.5124 C8.1988,9.4321 8.6186,9.372 9.0385,9.372 C9.9783,9.392 10.1183,9.8331 10.0983,10.0938 C10.0983,10.7755 9.4384,10.7755 9.0985,10.7755 L9.0985,10.7755 Z M3.4999,12.0185 L3.5599,11.9985 C3.8398,11.8983 4.0597,11.6978 4.2197,11.4371 C3.9197,11.5574 3.6798,11.7579 3.4999,12.0186 L3.4999,12.0185 Z M6.1592,6.0037 L6.0992,6.0037 C6.0792,6.0037 6.0392,6.0037 6.0192,6.0237 C5.9392,6.3645 5.9992,6.7254 6.1392,7.0462 C6.2592,6.7054 6.2592,6.3445 6.1592,6.0037 L6.1592,6.0037 Z M6.2992,8.9109 L6.2792,8.9509 L6.2592,8.9309 C6.0792,9.3921 5.8792,9.8532 5.6593,10.2943 L5.6993,10.2743 L5.6993,10.3143 C6.14395016,10.1530864 6.59802821,10.0191706 7.059,9.9133 L7.039,9.8933 L7.099,9.8933 C6.799,9.5925 6.5191,9.2517 6.2992,8.9109 L6.2992,8.9109 Z M9.0185,9.9735 C8.8385,9.9735 8.6786,9.9735 8.4986,10.0135 C8.6986,10.1138 8.8986,10.1539 9.0985,10.174 C9.2385,10.194 9.3785,10.174 9.4984,10.1339 C9.4984,10.0737 9.4184,9.9735 9.0185,9.9735 Z" id="形状" fill="#FFFFFF"></path>
            <path d="M9,0 L13,4 L10,4 C9.4477,4 9,3.5523 9,3 L9,0 Z" id="路径" fill="#FDC6CA"></path>
        </g>
    </g>
</svg>