<?xml version="1.0" encoding="UTF-8"?>
<svg width="16px" height="16px" viewBox="0 0 16 16" version="1.1" xmlns="http://www.w3.org/2000/svg" xmlns:xlink="http://www.w3.org/1999/xlink">
    <title>1.Icon/系统自带/文件彩/未知</title>
    <g id="1.Icon/系统自带/文件彩/未知" stroke="none" stroke-width="1" fill="none" fill-rule="evenodd">
        <g id="文件类型-标准图-未知文件" transform="translate(1.500000, 0.000000)" fill-rule="nonzero">
            <path d="M1,0 L9,0 L13,4 L13,15 C13,15.5523 12.5523,16 12,16 L1,16 C0.4477,16 0,15.5523 0,15 L0,1 C0,0.4477 0.4477,0 1,0 Z" id="路径" fill="#C6C6C6"></path>
            <path d="M9,0 L13,4 L10,4 C9.4477,4 9,3.5523 9,3 L9,0 Z" id="路径" fill="#E8E8E8"></path>
            <path d="M4.5,7.8 C4.5,7.4 4.58,7.08 4.66,6.88 C4.74,6.68 4.9,6.48 5.1,6.32 C5.3,6.12 5.5,6 5.78,5.92 C6.02,5.84 6.26,5.8 6.54,5.8 C7.1,5.8 7.54,5.96 7.94,6.28 C8.3,6.6 8.5,7 8.5,7.52 C8.5,7.76 8.42,7.96 8.34,8.16 C8.26,8.36 8.06,8.6 7.74,8.88 C7.42,9.16 7.3,9.36 7.18,9.48 C7.06,9.6 7.02,9.76 6.94,9.92 C6.86,10.08 6.9,10.2 6.9,10.6 L6.1,10.6 C6.1,10.2 6.14,10 6.18,9.8 C6.22,9.6 6.3,9.44 6.42,9.28 C6.54,9.12 6.66,8.92 6.94,8.64 C7.22,8.36 7.42,8.16 7.5,8.04 C7.58,7.92 7.66,7.72 7.66,7.44 C7.66,7.16 7.54,6.96 7.34,6.76 C7.14,6.56 6.86,6.44 6.5,6.44 C5.7,6.44 5.3,7 5.3,7.8 L4.5,7.8 L4.5,7.8 Z M6.9,12.2 L6.1,12.2 L6.1,11.4 L6.9,11.4 L6.9,12.2 Z" id="形状" fill="#FFFFFF"></path>
        </g>
    </g>
</svg>