<?xml version="1.0" encoding="UTF-8"?>
<svg width="16px" height="16px" viewBox="0 0 16 16" version="1.1" xmlns="http://www.w3.org/2000/svg" xmlns:xlink="http://www.w3.org/1999/xlink">
    <title>1.Icon/系统自带/文件彩/压缩</title>
    <g id="1.Icon/系统自带/文件彩/压缩" stroke="none" stroke-width="1" fill="none" fill-rule="evenodd">
        <g id="文件类型-标准图-压缩文件" transform="translate(1.500000, 0.000000)" fill-rule="nonzero">
            <path d="M1,0 L9,0 L13,4 L13,15 C13,15.5523 12.5523,16 12,16 L1,16 C0.4477,16 0,15.5523 0,15 L0,1 C0,0.4477 0.4477,0 1,0 Z" id="路径" fill="#576A95"></path>
            <path d="M7.6,9.8321 L7.6,12.0049 C7.59994875,12.1490339 7.54256313,12.2872272 7.4405,12.389 C7.33836565,12.4909017 7.19997536,12.5481 7.0557,12.5481 L5.9443,12.5481 C5.80004331,12.5481 5.66166307,12.4909465 5.5595,12.3891 C5.4573878,12.2872782 5.4,12.1490033 5.4,12.0048 L5.4,9.8321 L7.6,9.8321 L7.6,9.8321 Z M7.0557,11.0769 L5.9443,11.0769 L5.9443,12.1679 L7.0557,12.1679 L7.0557,11.0769 Z M7.5818,7.6593 L7.5818,8.7503 L6.4887,8.7503 L6.4887,7.6593 L7.5818,7.6593 L7.5818,7.6593 Z M6.5023,0 L6.5023,1.1 L7.6,1.1 L7.6,2.2 L6.5022,2.2 L6.5022,3.2185 L7.6,3.2185 L7.6,4.3185 L6.5023,4.3185 L6.5023,5.405 L7.6,5.405 L7.6,6.4915 L6.5023,6.4915 L6.5023,7.5779 L5.4,7.5779 L5.4,6.4914 L6.4977,6.4914 L6.4977,5.4049 L5.4,5.4049 L5.4,4.3185 L6.4977,4.3185 L6.4977,3.2185 L5.4,3.2185 L5.4,2.1185 L6.4977,2.1185 L6.4977,1.1 L5.4,1.1 L5.4,0 L6.5023,0 Z" id="形状" fill="#FFFFFF"></path>
            <path d="M9,0 L13,4 L10,4 C9.4477,4 9,3.5523 9,3 L9,0 Z" id="路径" fill="#BBC3D4"></path>
        </g>
    </g>
</svg>